<mxfile host="app.diagrams.net" agent="Mozilla/5.0 (Windows NT 10.0; Win64; x64) AppleWebKit/537.36 (KHTML, like Gecko) Chrome/128.0.0.0 Safari/537.36 Edg/128.0.0.0" version="24.7.14">
  <diagram name="Страница — 1" id="f6xoJaXHikJYl_fXzAfV">
    <mxGraphModel dx="660" dy="377" grid="1" gridSize="10" guides="1" tooltips="1" connect="1" arrows="1" fold="1" page="1" pageScale="1" pageWidth="827" pageHeight="1169" math="0" shadow="0">
      <root>
        <mxCell id="0" />
        <mxCell id="1" parent="0" />
        <mxCell id="UuHs7vBWJzcztO67CqQF-1" value="" style="rounded=0;whiteSpace=wrap;html=1;" parent="1" vertex="1">
          <mxGeometry x="280" y="120" width="320" height="200" as="geometry" />
        </mxCell>
        <mxCell id="UuHs7vBWJzcztO67CqQF-2" value="" style="rounded=0;whiteSpace=wrap;html=1;" parent="1" vertex="1">
          <mxGeometry x="280" y="120" width="320" height="20" as="geometry" />
        </mxCell>
        <mxCell id="UuHs7vBWJzcztO67CqQF-3" value="" style="rounded=0;whiteSpace=wrap;html=1;" parent="1" vertex="1">
          <mxGeometry x="580" y="120" width="20" height="20" as="geometry" />
        </mxCell>
        <mxCell id="UuHs7vBWJzcztO67CqQF-4" value="" style="rounded=0;whiteSpace=wrap;html=1;" parent="1" vertex="1">
          <mxGeometry x="560" y="120" width="20" height="20" as="geometry" />
        </mxCell>
        <mxCell id="UuHs7vBWJzcztO67CqQF-5" value="" style="rounded=0;whiteSpace=wrap;html=1;" parent="1" vertex="1">
          <mxGeometry x="540" y="120" width="20" height="20" as="geometry" />
        </mxCell>
        <mxCell id="UuHs7vBWJzcztO67CqQF-6" value="" style="endArrow=none;html=1;rounded=0;exitX=1;exitY=0.25;exitDx=0;exitDy=0;endSize=2;strokeWidth=1;" parent="1" edge="1">
          <mxGeometry width="50" height="50" relative="1" as="geometry">
            <mxPoint x="580.0000000000001" y="119.87" as="sourcePoint" />
            <mxPoint x="580" y="119.87" as="targetPoint" />
            <Array as="points">
              <mxPoint x="590" y="120" />
            </Array>
          </mxGeometry>
        </mxCell>
        <mxCell id="UuHs7vBWJzcztO67CqQF-7" value="" style="endArrow=none;html=1;rounded=0;" parent="1" edge="1">
          <mxGeometry width="50" height="50" relative="1" as="geometry">
            <mxPoint x="545" y="129.92000000000002" as="sourcePoint" />
            <mxPoint x="555" y="129.92000000000002" as="targetPoint" />
          </mxGeometry>
        </mxCell>
        <mxCell id="UuHs7vBWJzcztO67CqQF-8" value="" style="endArrow=none;html=1;rounded=0;" parent="1" edge="1">
          <mxGeometry width="50" height="50" relative="1" as="geometry">
            <mxPoint x="585" y="135" as="sourcePoint" />
            <mxPoint x="595" y="125" as="targetPoint" />
            <Array as="points">
              <mxPoint x="585" y="135" />
            </Array>
          </mxGeometry>
        </mxCell>
        <mxCell id="UuHs7vBWJzcztO67CqQF-9" value="" style="endArrow=none;html=1;rounded=0;" parent="1" edge="1">
          <mxGeometry width="50" height="50" relative="1" as="geometry">
            <mxPoint x="585" y="125" as="sourcePoint" />
            <mxPoint x="595" y="135" as="targetPoint" />
          </mxGeometry>
        </mxCell>
        <mxCell id="UuHs7vBWJzcztO67CqQF-10" value="" style="rounded=0;whiteSpace=wrap;html=1;" parent="1" vertex="1">
          <mxGeometry x="310" y="125" width="30" height="10" as="geometry" />
        </mxCell>
        <mxCell id="UuHs7vBWJzcztO67CqQF-11" value="" style="rounded=0;whiteSpace=wrap;html=1;" parent="1" vertex="1">
          <mxGeometry x="290" y="125" width="10" height="10" as="geometry" />
        </mxCell>
        <mxCell id="UuHs7vBWJzcztO67CqQF-12" value="" style="rounded=0;whiteSpace=wrap;html=1;" parent="1" vertex="1">
          <mxGeometry x="310" y="275" width="40" height="30" as="geometry" />
        </mxCell>
        <mxCell id="UuHs7vBWJzcztO67CqQF-13" value="&lt;font style=&quot;font-size: 10px;&quot;&gt;1&lt;/font&gt;" style="text;html=1;strokeColor=none;fillColor=none;align=center;verticalAlign=middle;whiteSpace=wrap;rounded=0;" parent="1" vertex="1">
          <mxGeometry x="290" y="127.5" width="10" height="5" as="geometry" />
        </mxCell>
        <mxCell id="UuHs7vBWJzcztO67CqQF-14" value="&lt;font style=&quot;font-size: 10px;&quot;&gt;2&lt;/font&gt;" style="text;html=1;strokeColor=none;fillColor=none;align=center;verticalAlign=middle;whiteSpace=wrap;rounded=0;" parent="1" vertex="1">
          <mxGeometry x="320" y="127.5" width="10" height="5" as="geometry" />
        </mxCell>
        <mxCell id="UuHs7vBWJzcztO67CqQF-16" value="" style="rounded=0;whiteSpace=wrap;html=1;" parent="1" vertex="1">
          <mxGeometry x="430" y="275" width="40" height="30" as="geometry" />
        </mxCell>
        <mxCell id="UuHs7vBWJzcztO67CqQF-17" value="" style="rounded=0;whiteSpace=wrap;html=1;" parent="1" vertex="1">
          <mxGeometry x="540" y="275" width="40" height="30" as="geometry" />
        </mxCell>
        <mxCell id="UuHs7vBWJzcztO67CqQF-18" value="" style="rounded=0;whiteSpace=wrap;html=1;" parent="1" vertex="1">
          <mxGeometry x="290" y="180" width="40" height="30" as="geometry" />
        </mxCell>
        <mxCell id="UuHs7vBWJzcztO67CqQF-19" value="" style="rounded=0;whiteSpace=wrap;html=1;" parent="1" vertex="1">
          <mxGeometry x="550" y="180" width="40" height="30" as="geometry" />
        </mxCell>
        <mxCell id="UuHs7vBWJzcztO67CqQF-21" value="&lt;font style=&quot;font-size: 10px;&quot;&gt;3&lt;/font&gt;" style="text;html=1;strokeColor=none;fillColor=none;align=center;verticalAlign=middle;whiteSpace=wrap;rounded=0;" parent="1" vertex="1">
          <mxGeometry x="300" y="275" width="60" height="30" as="geometry" />
        </mxCell>
        <mxCell id="UuHs7vBWJzcztO67CqQF-22" value="&lt;font style=&quot;font-size: 10px;&quot;&gt;4&lt;/font&gt;" style="text;html=1;strokeColor=none;fillColor=none;align=center;verticalAlign=middle;whiteSpace=wrap;rounded=0;" parent="1" vertex="1">
          <mxGeometry x="420" y="275" width="60" height="30" as="geometry" />
        </mxCell>
        <mxCell id="UuHs7vBWJzcztO67CqQF-23" value="&lt;font style=&quot;font-size: 10px;&quot;&gt;5&lt;/font&gt;" style="text;html=1;strokeColor=none;fillColor=none;align=center;verticalAlign=middle;whiteSpace=wrap;rounded=0;" parent="1" vertex="1">
          <mxGeometry x="530" y="275" width="60" height="30" as="geometry" />
        </mxCell>
        <mxCell id="UuHs7vBWJzcztO67CqQF-25" value="6" style="text;html=1;strokeColor=none;fillColor=none;align=center;verticalAlign=middle;whiteSpace=wrap;rounded=0;fontSize=10;" parent="1" vertex="1">
          <mxGeometry x="280" y="180" width="60" height="30" as="geometry" />
        </mxCell>
        <mxCell id="UuHs7vBWJzcztO67CqQF-26" value="&lt;font style=&quot;font-size: 10px;&quot;&gt;7&lt;/font&gt;" style="text;html=1;strokeColor=none;fillColor=none;align=center;verticalAlign=middle;whiteSpace=wrap;rounded=0;" parent="1" vertex="1">
          <mxGeometry x="540" y="180" width="60" height="30" as="geometry" />
        </mxCell>
        <mxCell id="F-eu6u7hYb4ZCY-J0EBu-1" value="" style="rounded=0;whiteSpace=wrap;html=1;" parent="1" vertex="1">
          <mxGeometry x="580" y="150" width="10" height="10" as="geometry" />
        </mxCell>
        <mxCell id="F-eu6u7hYb4ZCY-J0EBu-3" value="&lt;font style=&quot;font-size: 10px;&quot;&gt;12&lt;/font&gt;" style="text;html=1;strokeColor=none;fillColor=none;align=center;verticalAlign=middle;whiteSpace=wrap;rounded=0;" parent="1" vertex="1">
          <mxGeometry x="555" y="140" width="60" height="30" as="geometry" />
        </mxCell>
        <mxCell id="1Mcp6Ica5yklLMA9q3eL-1" value="" style="rounded=0;whiteSpace=wrap;html=1;" vertex="1" parent="1">
          <mxGeometry x="380" y="160" width="120" height="60" as="geometry" />
        </mxCell>
        <mxCell id="1Mcp6Ica5yklLMA9q3eL-2" value="" style="rounded=0;whiteSpace=wrap;html=1;" vertex="1" parent="1">
          <mxGeometry x="290" y="145" width="30" height="15" as="geometry" />
        </mxCell>
        <mxCell id="1Mcp6Ica5yklLMA9q3eL-3" value="10" style="text;html=1;align=center;verticalAlign=middle;whiteSpace=wrap;rounded=0;" vertex="1" parent="1">
          <mxGeometry x="410" y="175" width="60" height="30" as="geometry" />
        </mxCell>
        <mxCell id="1Mcp6Ica5yklLMA9q3eL-4" value="" style="rounded=0;whiteSpace=wrap;html=1;" vertex="1" parent="1">
          <mxGeometry x="300" y="216.5" width="20" height="11.5" as="geometry" />
        </mxCell>
        <mxCell id="1Mcp6Ica5yklLMA9q3eL-5" value="" style="rounded=0;whiteSpace=wrap;html=1;" vertex="1" parent="1">
          <mxGeometry x="560" y="216.5" width="20" height="11.5" as="geometry" />
        </mxCell>
        <mxCell id="1Mcp6Ica5yklLMA9q3eL-7" value="8" style="text;html=1;align=center;verticalAlign=middle;whiteSpace=wrap;rounded=0;" vertex="1" parent="1">
          <mxGeometry x="280" y="207.25" width="60" height="30" as="geometry" />
        </mxCell>
        <mxCell id="1Mcp6Ica5yklLMA9q3eL-8" value="9" style="text;html=1;align=center;verticalAlign=middle;whiteSpace=wrap;rounded=0;" vertex="1" parent="1">
          <mxGeometry x="540" y="207.25" width="60" height="30" as="geometry" />
        </mxCell>
        <mxCell id="1Mcp6Ica5yklLMA9q3eL-9" value="11" style="text;html=1;align=center;verticalAlign=middle;whiteSpace=wrap;rounded=0;" vertex="1" parent="1">
          <mxGeometry x="275" y="137.5" width="60" height="30" as="geometry" />
        </mxCell>
      </root>
    </mxGraphModel>
  </diagram>
</mxfile>
